<?xml version="1.0" encoding="UTF-8"?>
<svg xmlns="http://www.w3.org/2000/svg" xmlns:xlink="http://www.w3.org/1999/xlink" width="350.388489pt" height="311.060425pt" viewBox="0 0 350.388489 311.060425" version="1.2">
<defs>
<clipPath id="clip1">
  <path d="M 78 81 L 349.554688 81 L 349.554688 310 L 78 310 Z M 78 81 "/>
</clipPath>
<clipPath id="clip2">
  <path d="M 65 68 L 349.554688 68 L 349.554688 310.125 L 65 310.125 Z M 65 68 "/>
</clipPath>
<clipPath id="clip3">
  <path d="M 0.222656 112 L 105 112 L 105 196 L 0.222656 196 Z M 0.222656 112 "/>
</clipPath>
<clipPath id="clip4">
  <path d="M 0.222656 136 L 48 136 L 48 171 L 0.222656 171 Z M 0.222656 136 "/>
</clipPath>
</defs>
<g id="surface1">
<g clip-path="url(#clip1)" clip-rule="nonzero">
<path style=" stroke:none;fill-rule:nonzero;fill:rgb(89.802551%,83.135986%,69.410706%);fill-opacity:1;" d="M 349.40625 227.152344 C 332.957031 224.910156 306.785156 209.957031 303.046875 207.710938 C 299.308594 205.46875 282.109375 186.777344 273.136719 172.570312 C 264.164062 158.363281 255.9375 141.164062 252.949219 131.441406 C 249.957031 121.722656 246.964844 112 246.21875 106.765625 C 245.46875 101.535156 246.964844 89.195312 249.207031 83.960938 C 243.972656 80.222656 233.507812 79.476562 229.019531 89.195312 C 224.535156 98.917969 220.792969 113.871094 220.792969 123.589844 C 220.792969 133.3125 237.246094 164.71875 226.777344 169.203125 C 216.308594 173.691406 214.066406 179.671875 160.226562 166.214844 C 106.390625 152.753906 83.957031 151.257812 78.722656 161.726562 C 73.488281 172.195312 104.148438 176.679688 120.597656 179.671875 C 137.046875 182.664062 174.449219 196.597656 169.199219 203.601562 C 165.945312 207.9375 162.191406 206.957031 153.710938 209.949219 C 139.050781 215.125 139.277344 217.398438 120.972656 223.664062 C 102.699219 229.917969 103.890625 247.761719 109.625 250.753906 C 115.367188 253.75 120.109375 255.5 144.316406 241.773438 C 155.042969 237.78125 168.078125 235.128906 179.542969 234.132812 C 191.007812 233.136719 197.988281 276.007812 210.449219 282.488281 C 222.914062 288.96875 237.371094 288.46875 246.34375 288.46875 C 255.316406 288.46875 260.296875 289.964844 265.285156 287.472656 C 270.269531 284.980469 284.226562 288.46875 291.707031 292.457031 C 291.707031 292.457031 320.617188 306.414062 323.109375 309.40625 "/>
</g>
<g clip-path="url(#clip2)" clip-rule="nonzero">
<path style="fill:none;stroke-width:2.25;stroke-linecap:butt;stroke-linejoin:miter;stroke:rgb(0%,0%,0%);stroke-opacity:1;stroke-miterlimit:4;" d="M 350.238222 227.83847 C 333.739318 225.58951 307.488389 210.591218 303.738816 208.33834 C 299.989243 206.08938 282.738073 187.341515 273.738315 173.091571 C 264.738556 158.841626 256.487145 141.590456 253.489837 131.838432 C 250.488612 122.090326 247.487386 112.338302 246.739039 107.088116 C 245.986773 101.841849 247.487386 89.464732 249.736346 84.214546 C 244.486161 80.464973 233.989707 79.716626 229.487869 89.464732 C 224.989949 99.216756 221.236458 114.215048 221.236458 123.963154 C 221.236458 133.715178 237.73928 165.216292 227.238909 169.714212 C 216.738537 174.216051 214.489577 180.214584 160.487107 166.716905 C 106.488555 153.215308 83.9872 151.714695 78.737014 162.215066 C 73.486828 172.715438 104.239595 177.213358 120.7385 180.214584 C 137.237404 183.215809 174.752724 197.19149 169.486866 204.216552 C 166.223131 208.565587 162.457886 207.582156 153.951801 210.583382 C 139.247363 215.774797 139.47461 218.055101 121.114632 224.339652 C 102.785999 230.612449 103.981004 248.510097 109.7327 251.511322 C 115.492232 254.516466 120.248744 256.271752 144.528894 242.503727 C 155.287856 238.499481 168.362386 235.839126 179.86186 234.840023 C 191.361334 233.840921 198.362887 276.841509 210.861464 283.341553 C 223.363958 289.841596 237.864658 289.340086 246.864416 289.340086 C 255.864175 289.340086 260.859688 290.840698 265.863036 288.340983 C 270.862467 285.841268 284.861656 289.340086 292.36472 293.340414 C 292.36472 293.340414 321.362201 307.339603 323.861916 310.340828 " transform="matrix(0.996989,0,0,0.996989,0.222755,0)"/>
</g>
<path style="fill:none;stroke-width:1.5;stroke-linecap:butt;stroke-linejoin:miter;stroke:rgb(53.72467%,49.803162%,41.567993%);stroke-opacity:1;stroke-miterlimit:4;" d="M 175.861532 203.088154 C 201.364113 201.591459 210.363872 226.09102 216.362405 239.091107 " transform="matrix(0.996989,0,0,0.996989,0.222755,0)"/>
<path style="fill:none;stroke-width:1.5;stroke-linecap:butt;stroke-linejoin:miter;stroke:rgb(53.72467%,49.803162%,41.567993%);stroke-opacity:1;stroke-miterlimit:4;" d="M 229.613247 184.089534 C 229.864002 203.088154 237.864658 219.089466 248.611866 225.091917 " transform="matrix(0.996989,0,0,0.996989,0.222755,0)"/>
<path style="fill:none;stroke-width:1.5;stroke-linecap:butt;stroke-linejoin:miter;stroke:rgb(53.72467%,49.803162%,41.567993%);stroke-opacity:1;stroke-miterlimit:4;" d="M 179.86186 173.091571 C 173.863327 174.090673 166.861773 188.089862 169.862999 192.09019 " transform="matrix(0.996989,0,0,0.996989,0.222755,0)"/>
<path style="fill:none;stroke-width:1.5;stroke-linecap:butt;stroke-linejoin:miter;stroke:rgb(53.72467%,49.803162%,41.567993%);stroke-opacity:1;stroke-miterlimit:4;" d="M 147.863153 165.090914 C 143.862825 168.088222 135.862169 175.089776 137.864292 179.090104 " transform="matrix(0.996989,0,0,0.996989,0.222755,0)"/>
<path style="fill:none;stroke-width:1.5;stroke-linecap:butt;stroke-linejoin:miter;stroke:rgb(53.72467%,49.803162%,41.567993%);stroke-opacity:1;stroke-miterlimit:4;" d="M 111.864119 159.088463 C 106.864688 162.089689 105.23478 170.713315 104.239595 172.715438 " transform="matrix(0.996989,0,0,0.996989,0.222755,0)"/>
<path style="fill:none;stroke-width:1.5;stroke-linecap:butt;stroke-linejoin:miter;stroke:rgb(53.72467%,49.803162%,41.567993%);stroke-opacity:1;stroke-miterlimit:4;" d="M 166.861773 210.089708 C 172.864224 213.090933 175.861532 223.089794 173.863327 230.091348 " transform="matrix(0.996989,0,0,0.996989,0.222755,0)"/>
<path style="fill:none;stroke-width:1.5;stroke-linecap:butt;stroke-linejoin:miter;stroke:rgb(53.72467%,49.803162%,41.567993%);stroke-opacity:1;stroke-miterlimit:4;" d="M 150.974084 215.543632 C 155.973515 218.544857 156.4045 233.539231 154.406295 236.540457 " transform="matrix(0.996989,0,0,0.996989,0.222755,0)"/>
<path style="fill:none;stroke-width:1.5;stroke-linecap:butt;stroke-linejoin:miter;stroke:rgb(53.72467%,49.803162%,41.567993%);stroke-opacity:1;stroke-miterlimit:4;" d="M 131.885349 223.940011 C 138.36972 228.806228 139.078887 235.592289 135.701529 243.792766 " transform="matrix(0.996989,0,0,0.996989,0.222755,0)"/>
<path style="fill:none;stroke-width:1.5;stroke-linecap:butt;stroke-linejoin:miter;stroke:rgb(53.72467%,49.803162%,41.567993%);stroke-opacity:1;stroke-miterlimit:4;" d="M 220.48811 177.213358 C 217.486885 184.716422 215.237925 190.714955 215.986272 195.216793 " transform="matrix(0.996989,0,0,0.996989,0.222755,0)"/>
<path style="fill:none;stroke-width:1.5;stroke-linecap:butt;stroke-linejoin:miter;stroke:rgb(53.72467%,49.803162%,41.567993%);stroke-opacity:1;stroke-miterlimit:4;" d="M 221.236458 123.963154 C 230.193118 125.244356 223.246417 126.404098 239.98824 123.214806 " transform="matrix(0.996989,0,0,0.996989,0.222755,0)"/>
<path style="fill:none;stroke-width:1.5;stroke-linecap:butt;stroke-linejoin:miter;stroke:rgb(53.72467%,49.803162%,41.567993%);stroke-opacity:1;stroke-miterlimit:4;" d="M 299.362356 215.089138 C 296.36113 224.088897 293.363822 227.090122 288.364392 230.091348 " transform="matrix(0.996989,0,0,0.996989,0.222755,0)"/>
<path style="fill-rule:nonzero;fill:rgb(89.802551%,83.135986%,69.410706%);fill-opacity:1;stroke-width:2.25;stroke-linecap:butt;stroke-linejoin:miter;stroke:rgb(0%,0%,0%);stroke-opacity:1;stroke-miterlimit:4;" d="M 224.864571 280.841837 C 236.787194 278.455745 245.363804 276.841509 251.863847 274.839386 C 258.36389 272.841181 267.857323 267.34024 270.364875 262.34081 C 272.86459 257.341379 270.862467 256.338359 269.361854 252.839541 C 267.861241 249.340723 251.362337 251.338928 247.362009 252.839541 C 243.361681 254.340154 239.862863 255.840766 223.363958 258.340482 C 206.861136 260.840197 202.363215 262.090055 193.861049 261.090952 C 186.89084 260.268162 194.86407 277.840612 198.362887 279.838817 C 201.861705 281.84094 202.363215 285.339758 224.864571 280.841837 Z M 224.864571 280.841837 " transform="matrix(0.996989,0,0,0.996989,0.222755,0)"/>
<path style="fill-rule:nonzero;fill:rgb(89.802551%,83.135986%,69.410706%);fill-opacity:1;stroke-width:2.25;stroke-linecap:butt;stroke-linejoin:miter;stroke:rgb(0%,0%,0%);stroke-opacity:1;stroke-miterlimit:4;" d="M 237.590394 233.840921 C 251.761978 232.841818 258.849728 231.838798 262.665908 235.839126 C 266.47817 239.839454 264.844344 243.839782 263.755126 244.838885 C 262.665908 245.841905 250.124233 251.338928 243.585009 253.341051 C 237.041868 255.339256 235.95265 253.838643 222.870284 256.839869 C 209.784 259.841094 208.694783 260.840197 204.878603 262.34081 C 201.066341 263.841422 193.433982 263.339912 186.346231 257.838971 C 179.262398 252.341949 180.351616 242.84068 180.896225 239.839454 C 181.440834 236.838228 181.98936 230.338185 195.612417 229.339083 C 209.24331 228.33998 204.878603 232.841818 222.325675 233.339411 C 239.76883 233.840921 237.590394 233.840921 237.590394 233.840921 Z M 237.590394 233.840921 " transform="matrix(0.996989,0,0,0.996989,0.222755,0)"/>
<path style="fill:none;stroke-width:1.5;stroke-linecap:butt;stroke-linejoin:miter;stroke:rgb(53.72467%,49.803162%,41.567993%);stroke-opacity:1;stroke-miterlimit:4;" d="M 184.35978 238.840352 C 182.917938 251.820848 185.190407 252.463408 192.364354 257.838971 " transform="matrix(0.996989,0,0,0.996989,0.222755,0)"/>
<path style="fill:none;stroke-width:1.5;stroke-linecap:butt;stroke-linejoin:miter;stroke:rgb(53.72467%,49.803162%,41.567993%);stroke-opacity:1;stroke-miterlimit:4;" d="M 206.363544 239.091107 C 206.363544 243.091435 207.362646 252.091193 207.362646 252.091193 " transform="matrix(0.996989,0,0,0.996989,0.222755,0)"/>
<path style="fill:none;stroke-width:1.5;stroke-linecap:butt;stroke-linejoin:miter;stroke:rgb(53.72467%,49.803162%,41.567993%);stroke-opacity:1;stroke-miterlimit:4;" d="M 231.113859 237.841249 C 231.113859 239.839454 232.112962 247.84011 232.112962 250.841336 " transform="matrix(0.996989,0,0,0.996989,0.222755,0)"/>
<path style="fill:none;stroke-width:1.5;stroke-linecap:butt;stroke-linejoin:miter;stroke:rgb(53.72467%,49.803162%,41.567993%);stroke-opacity:1;stroke-miterlimit:4;" d="M 236.109372 260.338687 C 236.109372 263.339912 241.11272 273.338773 241.11272 273.338773 " transform="matrix(0.996989,0,0,0.996989,0.222755,0)"/>
<path style="fill:none;stroke-width:1.5;stroke-linecap:butt;stroke-linejoin:miter;stroke:rgb(53.72467%,49.803162%,41.567993%);stroke-opacity:1;stroke-miterlimit:4;" d="M 211.864484 266.090383 C 212.859669 268.088588 213.862689 277.088346 216.863915 278.091367 " transform="matrix(0.996989,0,0,0.996989,0.222755,0)"/>
<path style="fill:none;stroke-width:1.5;stroke-linecap:butt;stroke-linejoin:miter;stroke:rgb(53.72467%,49.803162%,41.567993%);stroke-opacity:1;stroke-miterlimit:4;" d="M 304.357868 239.091107 C 299.362356 248.090865 296.36113 271.093731 291.361699 276.089244 " transform="matrix(0.996989,0,0,0.996989,0.222755,0)"/>
<path style="fill:none;stroke-width:6.75;stroke-linecap:round;stroke-linejoin:miter;stroke:rgb(76.469421%,19.215393%,18.431091%);stroke-opacity:1;stroke-miterlimit:4;" d="M 242.613333 68.091774 L 242.107905 31.340474 " transform="matrix(0.996989,0,0,0.996989,0.222755,0)"/>
<path style=" stroke:none;fill-rule:nonzero;fill:rgb(76.469421%,19.215393%,18.431091%);fill-opacity:1;" d="M 241.601562 31.246094 L 224.171875 45.089844 L 241.601562 0 L 259.035156 45.089844 Z M 241.601562 31.246094 "/>
<g clip-path="url(#clip3)" clip-rule="nonzero">
<path style="fill:none;stroke-width:6.75;stroke-linecap:round;stroke-linejoin:miter;stroke:rgb(0%,65.097046%,83.920288%);stroke-opacity:1;stroke-miterlimit:4;" d="M 66.747784 157.842524 L 30.674306 150.80179 " transform="matrix(0.996989,0,0,0.996989,0.222755,0)"/>
</g>
<g clip-path="url(#clip4)" clip-rule="nonzero">
<path style=" stroke:none;fill-rule:nonzero;fill:rgb(0%,65.097046%,83.920288%);fill-opacity:1;" d="M 30.804688 150.347656 L 40.78125 170.246094 L 0.222656 143.941406 L 47.925781 136.121094 Z M 30.804688 150.347656 "/>
</g>
<path style="fill:none;stroke-width:6.75;stroke-linecap:round;stroke-linejoin:miter;stroke:rgb(0%,63.920593%,56.469727%);stroke-opacity:1;stroke-miterlimit:4;" d="M 94.781425 251.440797 L 71.688444 261.004755 " transform="matrix(0.996989,0,0,0.996989,0.222755,0)"/>
<path style=" stroke:none;fill-rule:nonzero;fill:rgb(0%,63.920593%,56.469727%);fill-opacity:1;" d="M 71.695312 260.21875 L 88.503906 277.71875 L 51.863281 267.839844 L 72.457031 235.960938 Z M 71.695312 260.21875 "/>
<path style=" stroke:none;fill-rule:nonzero;fill:rgb(0%,65.097046%,83.135986%);fill-opacity:1;" d="M 16.148438 114.757812 L 16.148438 116.402344 C 18.503906 116.402344 18.773438 116.402344 18.773438 117.875 L 18.773438 125.289062 C 18.773438 128.160156 17.054688 130.464844 14.109375 130.464844 C 11.261719 130.464844 11.117188 129.535156 11.117188 127.449219 L 11.117188 114.460938 L 4.390625 114.757812 L 4.390625 116.402344 C 6.722656 116.402344 6.992188 116.402344 6.992188 117.875 L 6.992188 126.835938 C 6.992188 130.640625 9.519531 131.71875 13.570312 131.71875 C 14.476562 131.71875 17.300781 131.71875 18.921875 128.652344 L 18.941406 128.652344 L 18.941406 131.71875 L 25.5 131.496094 L 25.5 129.878906 C 23.164062 129.878906 22.894531 129.878906 22.894531 128.40625 L 22.894531 114.460938 Z M 16.148438 114.757812 "/>
<path style=" stroke:none;fill-rule:nonzero;fill:rgb(0%,63.136292%,56.077576%);fill-opacity:1;" d="M 56.816406 238.53125 C 57.101562 237.9375 57.257812 237.625 59.777344 237.625 L 59.777344 235.886719 C 58.347656 235.960938 58.269531 235.960938 56.632812 235.960938 C 55.542969 235.960938 55.464844 235.960938 53.179688 235.886719 L 53.179688 237.625 C 54.269531 237.625 55.15625 237.804688 55.15625 238.09375 C 55.15625 238.144531 55.15625 238.171875 54.949219 238.582031 L 50.246094 248.871094 L 45.078125 237.625 L 47.289062 237.625 L 47.289062 235.886719 C 46.378906 235.960938 43.574219 235.960938 42.484375 235.960938 C 41.339844 235.960938 39.003906 235.960938 37.964844 235.886719 L 37.964844 237.625 L 40.484375 237.625 L 47.546875 252.917969 C 47.882812 253.671875 47.988281 253.878906 48.894531 253.878906 C 49.546875 253.878906 49.859375 253.800781 50.21875 252.996094 Z M 56.816406 238.53125 "/>
<path style=" stroke:none;fill-rule:nonzero;fill:rgb(0%,65.097046%,83.135986%);fill-opacity:1;" d="M 263.929688 2.464844 L 263.929688 3.984375 C 266.121094 3.984375 266.367188 3.984375 266.367188 5.347656 L 266.367188 12.226562 C 266.367188 14.882812 264.777344 17.03125 262.035156 17.03125 C 259.417969 17.03125 259.265625 16.140625 259.265625 14.214844 L 259.265625 2.175781 L 253.027344 2.464844 L 253.027344 3.984375 C 255.199219 3.984375 255.445312 3.984375 255.445312 5.347656 L 255.445312 13.65625 C 255.445312 17.164062 257.789062 18.171875 261.542969 18.171875 C 262.390625 18.171875 264.980469 18.171875 266.5 15.332031 L 266.523438 15.332031 L 266.523438 18.171875 L 272.597656 17.96875 L 272.597656 16.449219 C 270.433594 16.449219 270.183594 16.449219 270.183594 15.085938 L 270.183594 2.175781 Z M 263.929688 2.464844 "/>
<path style=" stroke:none;fill-rule:nonzero;fill:rgb(76.077271%,18.823242%,18.03894%);fill-opacity:1;" d="M 294.910156 8.230469 L 287.898438 1.238281 C 287.472656 0.8125 287.40625 0.75 287.113281 0.75 C 286.757812 0.75 286.425781 1.058594 286.425781 1.460938 C 286.425781 1.707031 286.492188 1.773438 286.867188 2.152344 L 293.882812 9.191406 L 286.867188 16.246094 C 286.492188 16.628906 286.425781 16.695312 286.425781 16.941406 C 286.425781 17.34375 286.757812 17.65625 287.113281 17.65625 C 287.40625 17.65625 287.472656 17.585938 287.898438 17.164062 L 294.867188 10.171875 L 302.125 17.433594 C 302.195312 17.480469 302.4375 17.65625 302.664062 17.65625 C 303.089844 17.65625 303.355469 17.34375 303.355469 16.941406 C 303.355469 16.875 303.355469 16.742188 303.246094 16.5625 C 303.222656 16.492188 297.636719 11 295.894531 9.191406 L 302.304688 2.777344 C 302.484375 2.578125 303 2.105469 303.179688 1.910156 C 303.222656 1.84375 303.355469 1.707031 303.355469 1.460938 C 303.355469 1.058594 303.089844 0.75 302.664062 0.75 C 302.375 0.75 302.242188 0.878906 301.859375 1.28125 Z M 294.910156 8.230469 "/>
<path style=" stroke:none;fill-rule:nonzero;fill:rgb(0%,63.136292%,56.077576%);fill-opacity:1;" d="M 333.683594 4.722656 C 333.929688 4.1875 334.0625 3.894531 336.273438 3.894531 L 336.273438 2.398438 C 335.023438 2.464844 334.957031 2.464844 333.503906 2.464844 C 332.566406 2.464844 332.5 2.464844 330.492188 2.398438 L 330.492188 3.894531 C 331.449219 3.894531 332.207031 4.074219 332.207031 4.320312 C 332.207031 4.367188 332.207031 4.386719 332.03125 4.742188 L 327.945312 13.769531 L 323.40625 3.894531 L 325.332031 3.894531 L 325.332031 2.398438 C 324.523438 2.464844 322.066406 2.464844 321.128906 2.464844 C 320.125 2.464844 318.089844 2.464844 317.175781 2.398438 L 317.175781 3.894531 L 319.386719 3.894531 L 325.554688 17.300781 C 325.863281 17.96875 325.933594 18.148438 326.738281 18.148438 C 327.292969 18.148438 327.585938 18.082031 327.898438 17.367188 Z M 333.683594 4.722656 "/>
</g>
</svg>
